<?xml version="1.0" standalone="no"?>
<!DOCTYPE svg PUBLIC "-//W3C//DTD SVG 20010904//EN"
 "http://www.w3.org/TR/2001/REC-SVG-20010904/DTD/svg10.dtd">
<svg version="1.0" xmlns="http://www.w3.org/2000/svg"
 width="1024.000000pt" height="1024.000000pt" viewBox="0 0 1024.000000 1024.000000"
 preserveAspectRatio="xMidYMid meet">
<metadata>
Created by potrace 1.14, written by Peter Selinger 2001-2017
</metadata>
<g transform="translate(0.000000,1024.000000) scale(0.100000,-0.100000)"
fill="#000000" stroke="none">
<path d="M0 5120 l0 -5120 4720 0 4720 0 0 80 0 80 320 0 320 0 0 -80 0 -80
80 0 80 0 0 5120 0 5120 -5120 0 -5120 0 0 -5120z m4915 3778 c81 -28 102 -44
152 -111 28 -38 40 -69 61 -165 l26 -117 -1 -520 c-2 -839 -44 -1471 -118
-1792 -9 -36 -13 -68 -11 -70 7 -7 39 13 63 39 11 12 60 82 108 153 48 72 112
164 142 205 100 138 188 264 304 435 64 94 129 189 145 211 100 143 145 208
189 279 27 44 68 107 92 140 80 112 212 312 314 475 33 52 103 163 155 245 53
83 113 186 135 229 36 74 39 86 39 165 0 48 4 92 9 100 6 10 30 13 87 12 85
-2 222 17 439 60 28 5 110 15 183 21 153 13 273 3 414 -36 101 -28 124 -39
131 -65 6 -22 -8 -44 -137 -226 -46 -66 -176 -255 -287 -420 -248 -367 -355
-523 -473 -685 -50 -69 -109 -151 -131 -183 -104 -149 -287 -405 -388 -542
-53 -71 -103 -139 -110 -150 -119 -168 -498 -649 -596 -755 -49 -53 -60 -71
-61 -100 0 -41 23 -107 62 -172 15 -27 45 -83 66 -125 38 -76 77 -150 170
-323 25 -47 73 -132 107 -190 34 -58 108 -190 165 -295 238 -440 295 -542 320
-580 15 -22 46 -76 70 -120 143 -265 175 -323 195 -355 12 -19 48 -84 80 -145
32 -60 66 -121 75 -135 9 -14 41 -70 70 -125 29 -55 64 -117 77 -137 13 -21
23 -40 23 -44 0 -8 223 -422 274 -508 23 -39 45 -78 49 -86 3 -8 77 -126 164
-262 87 -135 165 -259 174 -276 9 -16 31 -35 48 -43 35 -16 39 -27 14 -35 -55
-18 -75 -31 -141 -94 -168 -161 -309 -233 -510 -260 -118 -16 -226 -8 -333 26
-151 47 -214 102 -239 204 -27 113 -184 548 -257 715 -22 50 -57 131 -79 180
-60 140 -388 786 -534 1055 -32 58 -96 179 -142 270 -47 91 -99 190 -115 220
-16 30 -51 103 -77 162 -27 59 -55 109 -63 112 -19 8 -24 5 -205 -118 -101
-68 -158 -113 -161 -127 -3 -12 -1 -74 5 -138 10 -110 6 -699 -6 -781 -3 -19
-7 -73 -11 -120 -14 -215 -64 -484 -120 -656 -46 -140 -157 -360 -244 -483
-167 -235 -401 -421 -679 -540 -491 -210 -1136 -196 -1632 36 -268 125 -547
376 -687 618 -105 183 -247 493 -274 599 -18 71 -12 76 83 76 63 0 116 9 218
36 129 33 368 102 511 146 97 29 100 27 124 -67 33 -130 62 -202 112 -289 167
-284 424 -448 740 -472 181 -13 387 42 528 142 138 97 217 215 269 404 29 100
56 345 80 725 15 220 34 925 42 1515 3 250 9 624 13 830 19 965 11 1827 -20
2200 -15 196 -61 433 -111 575 -20 57 -31 80 -119 242 -21 39 -39 78 -39 86 0
16 29 27 75 27 17 0 95 14 175 31 137 29 275 52 365 62 22 3 101 4 175 2 114
-1 146 -6 205 -27z"/>
</g>
</svg>
